<?xml version="1.0" standalone="no"?>
<!DOCTYPE svg PUBLIC "-//W3C//DTD SVG 20010904//EN"
 "http://www.w3.org/TR/2001/REC-SVG-20010904/DTD/svg10.dtd">
<svg version="1.0" xmlns="http://www.w3.org/2000/svg"
 width="800.000000pt" height="587.000000pt" viewBox="0 0 800.000000 587.000000"
 preserveAspectRatio="xMidYMid meet">
<metadata>
Created by potrace 1.16, written by Peter Selinger 2001-2019
</metadata>
<g transform="translate(0.000000,587.000000) scale(0.100000,-0.100000)"
fill="#000000" stroke="none">
<path d="M5469 1140 c-9 -5 -20 -22 -24 -37 -7 -26 -8 -26 -15 -8 -7 16 -9 12
-11 -20 -1 -22 -3 -49 -4 -60 -1 -11 5 -29 12 -40 17 -26 17 -86 -2 -111 -12
-16 -14 -69 -15 -306 0 -265 2 -290 20 -333 11 -26 20 -62 20 -80 0 -36 12
-45 65 -45 22 0 35 6 40 17 4 10 10 73 12 140 5 110 8 123 30 147 36 39 34 41
126 -69 37 -44 87 -100 110 -125 24 -25 52 -60 62 -77 15 -26 26 -33 50 -33
18 0 32 5 33 13 1 6 4 33 8 58 7 52 17 38 -165 236 l-93 103 59 57 c32 32 82
75 110 96 58 42 78 84 65 132 -5 17 -7 36 -5 43 3 8 -8 12 -36 12 -30 0 -41
-4 -41 -15 0 -18 -97 -114 -160 -158 -25 -17 -67 -53 -95 -79 l-50 -49 -5 291
c-5 314 -5 310 -60 310 -14 -1 -32 -5 -41 -10z"/>
<path d="M6975 1073 c-37 -45 -41 -106 -9 -132 12 -9 25 -27 28 -39 6 -17 15
-22 42 -22 33 0 37 4 61 55 27 61 26 87 -9 143 -28 46 -72 44 -113 -5z"/>
<path d="M1734 1082 c-6 -4 -14 -20 -18 -37 -4 -16 -20 -57 -35 -90 -15 -33
-35 -80 -44 -105 -23 -64 -94 -237 -119 -290 -12 -25 -25 -54 -29 -65 -11 -29
-31 -77 -82 -198 l-46 -107 16 -45 c14 -41 18 -45 48 -45 26 0 35 5 41 23 3
12 17 45 29 72 13 28 31 72 40 98 20 53 30 63 48 49 17 -14 373 -16 382 -2 9
14 35 13 35 -2 0 -6 16 -44 35 -85 19 -41 35 -83 35 -94 0 -39 19 -59 54 -59
38 0 46 14 46 91 0 47 -16 90 -106 292 -24 53 -44 102 -44 107 0 6 -13 40 -30
77 -16 36 -30 70 -30 76 0 6 -6 18 -13 26 -7 9 -21 41 -31 71 -11 30 -22 60
-26 65 -3 6 -19 44 -35 85 -16 41 -33 81 -38 88 -10 13 -65 16 -83 4z m58
-249 c6 -16 24 -56 39 -89 16 -34 29 -67 29 -74 0 -6 6 -24 14 -38 46 -88 57
-152 21 -122 -16 13 -219 10 -247 -4 -24 -11 -24 15 1 63 10 20 26 56 36 81
10 25 21 54 26 65 4 11 18 48 31 82 13 35 26 63 31 63 4 0 12 -12 19 -27z"/>
<path d="M2498 853 c-10 -2 -18 -13 -18 -23 0 -14 -11 -22 -39 -30 -51 -13
-96 -70 -119 -147 -23 -78 -23 -286 0 -360 20 -65 60 -118 100 -132 38 -13 70
-40 62 -52 -3 -5 54 -9 125 -9 72 0 130 3 129 7 -4 20 17 43 39 43 13 0 33 5
44 10 18 10 19 7 19 -75 l0 -85 60 0 60 0 -2 423 -3 422 -45 0 c-42 0 -45 -2
-48 -27 -2 -17 -9 -28 -18 -28 -21 0 -65 31 -58 41 11 18 -50 29 -159 28 -62
-1 -120 -3 -129 -6z m234 -171 c-2 -11 6 -12 36 -7 63 10 67 -2 67 -192 0
-162 0 -165 -24 -184 -18 -15 -32 -18 -59 -13 -24 5 -33 3 -28 -4 12 -20 -38
-36 -109 -36 -84 0 -161 31 -176 70 -13 36 -12 298 3 328 13 29 39 40 73 32
15 -4 25 -1 29 9 8 22 193 18 188 -3z"/>
<path d="M3472 849 c-13 -5 -21 -13 -17 -18 7 -12 -26 -31 -51 -31 -10 0 -35
-17 -56 -37 -42 -41 -46 -38 -50 37 -3 41 -5 45 -32 48 -49 6 -71 -5 -74 -34
-1 -15 -11 -36 -22 -46 -19 -18 -20 -32 -20 -268 0 -234 1 -250 19 -259 22
-12 41 -61 41 -107 0 -34 1 -34 45 -34 25 0 45 1 46 3 0 1 4 108 8 237 6 220
8 238 29 272 25 41 63 58 129 58 26 0 42 4 38 10 -3 5 17 21 45 35 l50 25 0
50 c0 45 -3 52 -26 60 -31 12 -71 12 -102 -1z"/>
<path d="M3978 853 c-10 -2 -18 -13 -18 -23 0 -13 -11 -22 -35 -29 -19 -5 -42
-17 -51 -26 -16 -16 -18 -16 -27 0 -5 9 -7 28 -4 41 5 27 -18 38 -69 32 l-29
-3 -3 -422 -2 -423 55 0 55 0 0 53 0 52 187 -3 c104 -2 185 0 180 4 -12 12 24
44 52 44 29 1 82 63 103 121 14 39 18 317 5 391 -10 58 -71 132 -118 142 -19
3 -33 13 -36 25 -3 11 -15 22 -26 25 -25 7 -193 6 -219 -1z m176 -159 c9 -3
13 -10 11 -15 -3 -5 10 -8 30 -7 66 2 70 -10 69 -196 -1 -165 -7 -196 -38
-196 -7 0 -29 -9 -51 -20 -33 -17 -59 -20 -166 -20 -70 0 -134 3 -143 6 -25 9
-23 329 1 372 23 41 71 63 119 55 25 -4 35 -3 30 5 -3 5 0 13 6 15 19 8 114 8
132 1z"/>
<path d="M4772 849 c-13 -5 -21 -13 -17 -18 7 -12 -26 -31 -52 -31 -23 0 -62
-41 -88 -92 -28 -55 -13 -92 38 -96 32 -3 42 2 69 32 28 32 36 35 66 30 23 -5
33 -3 29 4 -10 15 17 22 88 22 65 0 98 -7 91 -19 -3 -4 10 -5 27 -3 36 4 62
-12 72 -45 l6 -23 -179 0 c-133 0 -181 -3 -184 -12 -3 -7 -22 -22 -43 -33 -22
-11 -53 -40 -70 -63 -29 -42 -30 -48 -30 -145 0 -97 1 -104 29 -139 15 -21 43
-47 62 -58 18 -12 36 -30 39 -40 6 -18 16 -20 133 -20 122 0 128 1 137 23 6
13 21 23 37 25 14 2 32 10 38 18 22 25 40 16 40 -20 0 -37 12 -46 60 -46 52 0
55 13 58 262 4 214 2 234 -18 298 -24 75 -68 127 -123 145 -17 5 -32 16 -32
24 0 8 -9 17 -20 22 -28 11 -235 10 -263 -2z m159 -409 l159 0 0 -64 c0 -58
-2 -65 -26 -81 -19 -12 -36 -15 -61 -10 -21 4 -33 3 -29 -3 11 -17 -20 -32
-80 -38 -67 -7 -129 6 -168 37 -22 17 -26 28 -26 73 0 57 28 103 57 92 8 -3
86 -6 174 -6z"/>
<path d="M6303 853 c-14 -3 -23 -12 -23 -23 0 -13 -10 -21 -32 -25 -40 -9 -53
-19 -90 -69 -30 -41 -37 -93 -16 -114 25 -25 73 -14 106 24 28 31 36 35 63 29
20 -5 29 -4 25 3 -9 15 19 22 94 22 72 0 103 -7 95 -20 -3 -5 9 -6 27 -3 36 5
63 -15 70 -51 3 -17 -6 -18 -174 -17 -167 2 -177 1 -187 -18 -6 -10 -24 -22
-41 -26 -43 -9 -91 -84 -99 -155 -10 -85 3 -157 37 -204 16 -23 39 -46 50 -51
32 -17 52 -37 46 -46 -3 -5 55 -9 132 -9 76 0 134 3 131 7 -12 11 25 43 48 43
13 0 28 7 35 15 19 23 34 13 40 -26 5 -33 7 -34 49 -34 l44 0 14 55 c10 41 13
104 10 250 -4 216 -16 279 -65 339 -31 38 -44 47 -84 56 -19 3 -28 12 -28 24
0 13 -10 20 -31 25 -34 7 -210 6 -246 -1z m153 -413 l164 0 0 -59 c0 -53 -3
-62 -27 -81 -21 -16 -35 -20 -60 -15 -24 4 -33 2 -31 -6 5 -21 -71 -41 -133
-36 -55 5 -117 29 -131 51 -4 6 -8 35 -8 65 0 58 21 96 48 86 7 -3 88 -5 178
-5z"/>
<path d="M6993 843 c-10 -4 -13 -83 -13 -348 0 -233 -3 -346 -11 -350 -22 -14
23 -45 66 -45 l42 0 9 52 c5 29 9 175 9 323 0 149 -4 294 -9 323 -9 52 -9 52
-45 51 -20 0 -42 -3 -48 -6z"/>
</g>
</svg>
